<svg width="20" height="20" viewBox="0 0 20 20" fill="none" xmlns="http://www.w3.org/2000/svg">
<g clip-path="url(#clip0_1167_5253)">
<path d="M10 10C10 9.33696 10.2634 8.70108 10.7322 8.23224C11.2011 7.7634 11.837 7.5 12.5 7.5C13.1631 7.5 13.7989 7.7634 14.2678 8.23224C14.7366 8.70108 15 9.33696 15 10C15 10.663 14.7366 11.2989 14.2678 11.7678C13.7989 12.2366 13.1631 12.5 12.5 12.5C11.837 12.5 11.2011 12.2366 10.7322 11.7678C10.2634 11.2989 10 10.663 10 10V10Z" fill="#1ABCFE"/>
<path d="M5.00002 15C5.00002 14.337 5.26341 13.7011 5.73225 13.2322C6.20109 12.7634 6.83697 12.5 7.50002 12.5H10V15C10 15.663 9.73662 16.2989 9.26778 16.7678C8.79894 17.2366 8.16306 17.5 7.50002 17.5C6.83697 17.5 6.20109 17.2366 5.73225 16.7678C5.26341 16.2989 5.00002 15.663 5.00002 15V15Z" fill="#0ACF83"/>
<path d="M10 2.5V7.5H12.5C13.1631 7.5 13.7989 7.23661 14.2678 6.76777C14.7366 6.29893 15 5.66304 15 5C15 4.33696 14.7366 3.70107 14.2678 3.23223C13.7989 2.76339 13.1631 2.5 12.5 2.5H10Z" fill="#FF7262"/>
<path d="M5.00002 5C5.00002 5.66304 5.26341 6.29893 5.73225 6.76777C6.20109 7.23661 6.83697 7.5 7.50002 7.5H10V2.5H7.50002C6.83697 2.5 6.20109 2.76339 5.73225 3.23223C5.26341 3.70107 5.00002 4.33696 5.00002 5V5Z" fill="#F24E1E"/>
<path d="M5.00002 10C5.00002 10.663 5.26341 11.2989 5.73225 11.7678C6.20109 12.2366 6.83697 12.5 7.50002 12.5H10V7.5H7.50002C6.83697 7.5 6.20109 7.7634 5.73225 8.23224C5.26341 8.70108 5.00002 9.33696 5.00002 10V10Z" fill="#A259FF"/>
</g>
<defs>
<clipPath id="clip0_1167_5253">
<rect width="10" height="15" fill="white" transform="translate(5.00002 2.5)"/>
</clipPath>
</defs>
</svg>
