<svg width="20" height="20" viewBox="0 0 20 20" fill="none" xmlns="http://www.w3.org/2000/svg">
<g clip-path="url(#clip0_1167_5260)">
<path d="M15.9039 4.94206L14.8282 16.9928L9.99278 18.3333L5.17071 16.9947L4.09613 4.94206H15.9039Z" fill="#E44D26"/>
<path d="M10 17.3087L13.9072 16.2255L14.8265 5.92754H10V17.3087Z" fill="#F16529"/>
<path d="M9.99999 8.88398H7.90885L8.04394 10.3977H9.99999V11.8759H6.69205L6.29335 7.40575H9.99999V8.88398Z" fill="#EBEBEB"/>
<path d="M6.75813 12.615H8.24202L8.34726 13.7939L9.99355 14.2385L10 14.2367V15.7747L9.99322 15.7766L6.96523 14.936L6.75813 12.615Z" fill="#EBEBEB"/>
<path d="M5.94594 1.66666H5.19476V3.91419H5.94597V3.16159H6.63314V3.91419H7.38435V1.66666H6.63311V2.40885H5.94594V1.66666Z" fill="black"/>
<path d="M7.71087 2.41198H8.3722L8.37223 3.91419H9.12347V2.41198H9.78509V1.66666H7.71087V2.41198Z" fill="black"/>
<path d="M10.1143 1.66666H10.8976L11.3794 2.45638L11.8608 1.66666H12.6444V3.91419H11.8963V2.80019L11.3794 3.59931H11.3665L10.8493 2.80019V3.91419H10.1143V1.66666Z" fill="black"/>
<path d="M13.7697 1.66666H13.0182V3.91419H14.8261V3.17129H13.7697V1.66666Z" fill="black"/>
<path d="M9.99487 8.88398V7.40575H13.6978L13.5654 8.88398H9.99487Z" fill="white"/>
<path d="M11.8151 11.8759H9.99487V10.3977H13.4309L13.3949 10.7946L13.0253 14.936L9.99487 15.7759V14.238L11.6435 13.793L11.8151 11.8759Z" fill="white"/>
</g>
<defs>
<clipPath id="clip0_1167_5260">
<rect width="20" height="20" fill="white"/>
</clipPath>
</defs>
</svg>
