<svg width="109" height="29" viewBox="0 0 109 29" fill="none" xmlns="http://www.w3.org/2000/svg">
<path d="M42.8567 8.12253H45.9907V20.7451H42.8567V19.3313C42.0954 20.5095 40.8888 21.0985 39.2367 21.0985C37.9086 21.0985 36.8072 20.6357 35.9326 19.71C35.0742 18.7844 34.645 17.5053 34.645 15.8728V8.12253H37.779V15.4688C37.779 16.3104 37.9977 16.9583 38.435 17.4127C38.8723 17.8503 39.4554 18.0691 40.1842 18.0691C40.994 18.0691 41.6419 17.8082 42.1278 17.2865C42.6137 16.7648 42.8567 15.9822 42.8567 14.9387V8.12253Z" fill="#0F0233"/>
<path d="M55.6151 7.7691C56.9432 7.7691 58.0365 8.23193 58.8949 9.15758C59.7695 10.0832 60.2068 11.3623 60.2068 12.9948V20.7451H57.0728V13.3988C57.0728 12.5573 56.8541 11.9177 56.4168 11.4801C55.9795 11.0257 55.3964 10.7985 54.6676 10.7985C53.8577 10.7985 53.2099 11.0594 52.724 11.5811C52.2381 12.1028 51.9951 12.8854 51.9951 13.9289V20.7451H48.8611V8.12253H51.9951V9.53625C52.7564 8.35815 53.963 7.7691 55.6151 7.7691Z" fill="#0F0233"/>
<path d="M64.4377 6.60783C63.9194 6.60783 63.4659 6.41428 63.0772 6.02719C62.7047 5.62327 62.5184 5.15202 62.5184 4.61346C62.5184 4.0749 62.7047 3.60366 63.0772 3.19974C63.4659 2.79582 63.9194 2.59386 64.4377 2.59386C64.9722 2.59386 65.4257 2.79582 65.7982 3.19974C66.1869 3.60366 66.3813 4.0749 66.3813 4.61346C66.3813 5.15202 66.1869 5.62327 65.7982 6.02719C65.4257 6.41428 64.9722 6.60783 64.4377 6.60783ZM62.8828 20.7451V8.12253H66.0169V20.7451H62.8828Z" fill="#0F0233"/>
<path d="M75.8337 11.2529H73.0884V16.5039C73.0884 16.9415 73.1937 17.2612 73.4042 17.4632C73.6148 17.6652 73.9225 17.783 74.3274 17.8166C74.7323 17.8335 75.2344 17.8251 75.8337 17.7914V20.7451C73.6796 20.9975 72.1571 20.7871 71.2663 20.1139C70.3917 19.4407 69.9544 18.2374 69.9544 16.5039V11.2529H67.8407V8.12253H69.9544V5.57278L73.0884 4.58822V8.12253H75.8337V11.2529Z" fill="#0F0233"/>
<path d="M86.2245 8.12253H89.5772L85.1555 20.7451C84.5239 22.5627 83.6817 23.8755 82.6289 24.6833C81.5923 25.508 80.2966 25.8782 78.7417 25.7941V22.7647C79.5839 22.7815 80.248 22.5964 80.7339 22.2093C81.236 21.8222 81.6328 21.1995 81.9243 20.3412L76.9439 8.12253H80.3695L83.5278 16.6049L86.2245 8.12253Z" fill="#0F0233"/>
<path d="M91.0687 20.7451V2.31616H94.2027V20.7451H91.0687Z" fill="#0F0233"/>
<path d="M99.7194 15.7718C100.14 17.3538 101.282 18.1448 103.145 18.1448C104.343 18.1448 105.25 17.7241 105.866 16.8826L108.393 18.3973C107.194 20.1981 105.429 21.0985 103.096 21.0985C101.088 21.0985 99.4764 20.4674 98.2617 19.2051C97.0469 17.9429 96.4396 16.3524 96.4396 14.4338C96.4396 12.532 97.0388 10.95 98.2374 9.68773C99.4359 8.40864 100.975 7.7691 102.853 7.7691C104.635 7.7691 106.101 8.40864 107.251 9.68773C108.417 10.9668 109 12.5488 109 14.4338C109 14.8546 108.96 15.3005 108.879 15.7718H99.7194ZM99.6708 13.2473H105.866C105.688 12.3889 105.315 11.7494 104.748 11.3287C104.198 10.9079 103.566 10.6975 102.853 10.6975C102.011 10.6975 101.315 10.9247 100.764 11.3791C100.213 11.8167 99.8489 12.4394 99.6708 13.2473Z" fill="#0F0233"/>
<path fill-rule="evenodd" clip-rule="evenodd" d="M1.26149 0C0.564786 0 0 0.582936 0 1.30202V26.9085C0 27.6276 0.564787 28.2105 1.26149 28.2105H21.0248C21.7215 28.2105 22.2862 27.6276 22.2862 26.9085V1.30202C22.2862 0.582936 21.7215 0 21.0248 0H1.26149ZM5.04594 5.2081H8.8304V23.0024V23.0024C6.7403 23.0024 5.04594 21.3081 5.04594 19.218V5.2081ZM13.4558 5.2081H17.2403V17.7943H13.4558V5.2081Z" fill="#6933FF"/>
<path d="M24.7689 0.608154V0.923244H24.3318V2.27909H24.0126V0.923244H23.5779V0.608154H24.7689Z" fill="#6933FF"/>
<path d="M26.5313 0.608154V2.27909H26.2144V1.19537L25.7588 1.97116H25.7218L25.2662 1.19775V2.27909H24.9471V0.608154H25.2755L25.7403 1.39827L26.2029 0.608154H26.5313Z" fill="#6933FF"/>
</svg>
